<svg id="Laag_1" data-name="Laag 1" xmlns="http://www.w3.org/2000/svg" xmlns:xlink="http://www.w3.org/1999/xlink" viewBox="0 0 1260.94 210.97">
  <defs>
    <style>
      .cls-1 {
        fill: none;
      }

      .cls-2 {
        fill: #605d5d;
      }

      .cls-3 {
        fill: #959691;
      }

      .cls-4 {
        fill: #3e3e3b;
      }

      .cls-5 {
        fill: #9a3434;
      }

      .cls-6 {
        fill: #642a28;
      }

      .cls-7 {
        fill: #2f1b17;
      }

      .cls-8 {
        clip-path: url(#clip-path);
      }

      .cls-9 {
        fill: #343334;
      }
    </style>
    <clipPath id="clip-path">
      <rect class="cls-1" width="1260.94" height="210.96"/>
    </clipPath>
  </defs>
  <title>Tekengebied 1</title>
  <g>
    <polygon class="cls-2" points="112.28 171.21 34.19 125.81 0 145.69 112.28 210.97 224.57 145.69 190.37 125.81 112.28 171.21"/>
    <path class="cls-3" d="M0,105.93l34.19,19.88,34.19-19.87L34.19,86.05Zm156.18,0,34.19,19.87,34.2-19.88L190.38,86.05Z"/>
    <polygon class="cls-4" points="156.18 105.94 112.28 131.46 68.38 105.94 34.2 125.81 112.28 171.21 190.37 125.81 156.18 105.94"/>
    <polygon class="cls-5" points="0 66.18 34.19 86.06 112.28 40.66 190.38 86.06 224.57 66.18 112.28 0.91 0 66.18"/>
    <polygon class="cls-6" points="112.28 40.66 34.19 86.06 68.38 105.94 112.28 80.42 156.18 105.94 190.38 86.06 112.28 40.66"/>
    <polygon class="cls-7" points="112.28 80.42 68.38 105.94 112.28 131.46 156.18 105.94 112.28 80.42"/>
    <g class="cls-8">
      <path class="cls-5" d="M383.47,23.73H332.33q-6.76,0-9.41,2.66t-2.66,9.2V62.8H375.9V82.64H320.26V144H294.49V30.28q0-13.09,8.18-20.46t22.1-7.37q42.14,0,60.14,1.84Z"/>
      <path class="cls-5" d="M417.57,86.94h34.36q9,0,9-11.66,0-8.18-4.29-11.46t-15.55-3.27Q428,60.55,423,66t-5.42,21m41.32,17.39H418q1.42,13.09,7.37,17.49t19.43,4.39a310.41,310.41,0,0,0,36-2.45l2.25,16q-14.11,6.75-41.32,6.75T403,134.4q-11.46-12.06-11.46-40.71,0-29.25,11.25-41t37.23-11.76q23.94,0,34.77,8.69t10.84,26.08q0,28.64-26.8,28.64"/>
      <path class="cls-5" d="M533.75,144H509V43.78h24.75ZM515.54.21H527q7.17,0,7.16,7.16V18.62q0,7.16-7.16,7.16H515.54q-7.16,0-7.16-7.16V7.37q0-7.16,7.16-7.16"/>
      <path class="cls-5" d="M570.16,0h11.46q7.16,0,7.16,7.17v11q0,7.17-7.16,7.16H570.16q-7.16,0-7.16-7.16v-11Q563,0,570.16,0m18.21,43.78v98.4a51.74,51.74,0,0,1-6.14,24.65,46.24,46.24,0,0,1-16.77,18.1l-13.91-10.84a48.28,48.28,0,0,0,11.86-31.91V43.78Z"/>
      <path class="cls-5" d="M638.49,86.94h34.36q9,0,9-11.66,0-8.18-4.29-11.46T662,60.55q-13.1,0-18.11,5.42t-5.42,21m41.32,17.39H638.9q1.43,13.09,7.36,17.49t19.43,4.39a310.31,310.31,0,0,0,36-2.45l2.25,16q-14.12,6.75-41.32,6.75T624,134.4q-11.45-12.06-11.45-40.71,0-29.25,11.25-41T661,40.92q23.94,0,34.77,8.69t10.85,26.08q0,28.64-26.8,28.64"/>
      <path class="cls-5" d="M750,43.78l1.64,14.73Q774.93,40.92,795,40.92q13.3,0,20.46,7.16t7.16,20.66V144h-25V76.3q0-8.38-2.25-11.35T787,62a38.63,38.63,0,0,0-14.22,2.87,154.78,154.78,0,0,0-18.72,9.41V144h-25V43.78Z"/>
      <path class="cls-5" d="M895,60.76q-13.91,0-18.82,6.85T871.28,93.9q0,19.23,4.91,26.08T895,126.83q13.5,0,18.51-6.85t5-26.08q0-19.43-5-26.29T895,60.76m0-19.84q27,0,38.15,12.07T944.31,93.9q0,28.84-11.15,40.81t-38.15,12q-27.21,0-38.46-12T845.3,93.9q0-28.84,11.25-40.91T895,40.92"/>
      <path class="cls-5" d="M1012.83,60.76q-13.91,0-18.82,6.85T989.1,93.9q0,19.23,4.91,26.08t18.82,6.85q13.5,0,18.51-6.85t5-26.08q0-19.43-5-26.29t-18.51-6.85m0-19.84q27,0,38.15,12.07t11.15,40.91q0,28.84-11.15,40.81t-38.15,12q-27.21,0-38.46-12T963.12,93.9q0-28.84,11.25-40.91t38.46-12.07"/>
      <path class="cls-5" d="M1153.37,40.92l-2.66,23.32h-7.16q-10.63,0-33.14,9V144h-25V43.78h19.43l2.25,14.73q21.48-17.59,41.32-17.59Z"/>
      <path class="cls-5" d="M1235.39,115V65.26q-16.37-4.09-25-4.09-11.66,0-16,6.24t-4.29,25.67q0,19,4.19,25.67T1209,125.4a31,31,0,0,0,12.07-2.15,93.9,93.9,0,0,0,14.32-8.29m25-114.14V144h-19.64l-2-13.7q-17.39,16.16-38.87,16.15-18.41,0-26.8-13.4t-8.38-39.79q0-28.84,9.3-40.6t29.15-11.76q19.22,0,33.34,8.79a164.79,164.79,0,0,1-1-20V.82Z"/>
      <path class="cls-9" d="M307.51,163.95a35.61,35.61,0,0,0-5.14.3A11.82,11.82,0,0,0,298,165.8a6.27,6.27,0,0,0-2.75,3.58,20.49,20.49,0,0,0-.79,6.33c0,3.64.68,6.42,2,8.37s3.63,3.25,6.83,3.91l9.65,2c2.31.44,3.95,1.25,4.89,2.44s1.41,3.21,1.41,6q0,5.19-2.1,6.77t-8.07,1.64q-5.52,0-13.66-.39l-.27,3.22a89.92,89.92,0,0,0,13.78,1,39.32,39.32,0,0,0,6.57-.43A11.9,11.9,0,0,0,320,208.6a6.82,6.82,0,0,0,2.83-3.67,19.89,19.89,0,0,0,.85-6.39c0-3.7-.69-6.55-2.07-8.5s-3.75-3.25-7.13-3.91l-9.45-2a7.7,7.7,0,0,1-4.82-2.46c-1-1.19-1.41-3.16-1.41-5.88a16.8,16.8,0,0,1,.48-4.53,4,4,0,0,1,2-2.42,8.42,8.42,0,0,1,3-1,45.79,45.79,0,0,1,4.72-.16c3.2,0,7.39.12,12.55.39l.32-3.14A73.48,73.48,0,0,0,308.82,164h-1.31"/>
    </g>
    <polygon class="cls-9" points="328.96 164.68 328.96 168.49 344.01 168.49 344.01 209.99 348.34 209.99 348.34 168.49 363.44 168.49 363.44 164.68 328.96 164.68"/>
    <g class="cls-8">
      <path class="cls-9" d="M386.37,164.15q-9.73,0-15.18.53V210h4.28V190.42q5.26.14,11.23.13c3.1,0,5.28,1.72,6.5,5.2L397.53,210h4.58l-4.58-14.38c-1-3.55-2.8-5.69-5.38-6.43v-.27c3-.43,5.1-1.56,6.4-3.38s1.94-4.63,1.94-8.44q0-7.48-3.15-10.21t-11-2.72m-10.9,22.65V168c3.51-.09,7.13-.14,10.9-.14s6.22.67,7.65,2,2.13,3.81,2.13,7.48-.71,6.12-2.13,7.45-4,2-7.65,2.07Z"/>
      <path class="cls-9" d="M428.07,164.68h-4.92a1.62,1.62,0,0,0-1.71,1.24L406.26,210h4.46l5-15h19.77l5,15h4.47l-15.17-44.07a1.63,1.63,0,0,0-1.71-1.24M417,191.27l6.5-19.5,1.24-3.68h1.84c.14.44.34,1.1.65,2s.49,1.46.53,1.68l6.5,19.5Z"/>
      <path class="cls-9" d="M468.45,164.68h-4.92a1.64,1.64,0,0,0-1.71,1.24L446.65,210h4.47l5-15h19.78l5,15h4.47l-15.18-44.07a1.62,1.62,0,0,0-1.7-1.24m-11.1,26.58,6.5-19.5,1.24-3.68h1.84c.14.44.35,1.1.65,2s.49,1.46.54,1.68l6.5,19.5Z"/>
      <path class="cls-9" d="M496.43,164.68h-4.34v37.49a7.82,7.82,0,0,0,2.1,5.7c1.41,1.45,3.48,2.17,6.25,2.17q10.76,0,17.73-.39l-.13-3.29H501.16c-3.16,0-4.73-1.59-4.73-4.8Z"/>
    </g>
    <rect class="cls-9" x="521.31" y="191.8" width="20.17" height="3.29"/>
    <g class="cls-8">
      <path class="cls-9" d="M620.59,164.61a8.24,8.24,0,0,0-5.82,2,7.07,7.07,0,0,0-2.2,5.45v30.47a7.05,7.05,0,0,0,2.2,5.45,8.22,8.22,0,0,0,5.82,2q13.2,0,19.38-.39l-.27-3.29H621.31q-4.4,0-4.4-4.73v-14h20.22v-3.49H616.91v-11.1c0-3.2,1.47-4.79,4.4-4.79H639.7L640,165q-6.19-.4-19.38-.4"/>
      <path class="cls-9" d="M683.24,164.68H679v34.68c0,2.18.07,4.35.2,6.5h-1.38q-1-2-3-6.11l-16.88-33.62a2.18,2.18,0,0,0-2.1-1.44h-4.47c-1.18,0-1.77.61-1.77,1.83V210h4.25V174.14c0-2.46,0-4.27-.13-5.46h1.25c.09.25.94,2.08,2.56,5.46l17.28,34.4a2.18,2.18,0,0,0,2.1,1.45h4.59a1.6,1.6,0,0,0,1.77-1.84Z"/>
      <path class="cls-9" d="M721.08,163.95a35.63,35.63,0,0,0-5.13.3,11.8,11.8,0,0,0-4.34,1.55,6.33,6.33,0,0,0-2.75,3.58,21,21,0,0,0-.79,6.33c0,3.64.68,6.42,2,8.37s3.62,3.25,6.83,3.91l9.64,2a7.92,7.92,0,0,1,4.89,2.44c.93,1.18,1.42,3.21,1.42,6,0,3.46-.71,5.71-2.11,6.77s-4.1,1.6-8.08,1.64c-3.67,0-8.23-.13-13.65-.39l-.27,3.22a90,90,0,0,0,13.79,1,39.42,39.42,0,0,0,6.57-.43,11.92,11.92,0,0,0,4.46-1.68,6.81,6.81,0,0,0,2.82-3.67,19.67,19.67,0,0,0,.86-6.39c0-3.7-.69-6.55-2.08-8.5s-3.76-3.25-7.12-3.91l-9.46-2a7.73,7.73,0,0,1-4.83-2.46c-.94-1.19-1.4-3.16-1.4-5.88a16,16,0,0,1,.5-4.53,3.88,3.88,0,0,1,2-2.42,8.34,8.34,0,0,1,3-1,46.05,46.05,0,0,1,4.73-.16c3.2,0,7.38.12,12.54.39l.33-3.14A73.59,73.59,0,0,0,722.38,164h-1.3"/>
      <path class="cls-9" d="M762.64,163.89q-9.58,0-13.46,5.25t-3.88,18.19q0,12.94,3.88,18.19t13.46,5.25a51.44,51.44,0,0,0,13-1.37l-.53-3.22a89.15,89.15,0,0,1-12.48.72c-4.82,0-8.16-1.41-10.06-4.27s-2.81-8-2.81-15.31.94-12.45,2.81-15.3,5.24-4.27,10.06-4.27a97.74,97.74,0,0,1,11.56.6l.54-3.23a50.49,50.49,0,0,0-12.09-1.25"/>
    </g>
    <polygon class="cls-9" points="814.5 162.76 814.5 181.87 791.82 181.87 791.82 162.76 787.57 162.76 787.57 207.75 791.82 207.75 791.82 185.52 814.5 185.52 814.5 207.75 818.75 207.75 818.75 162.76 814.5 162.76"/>
    <rect class="cls-9" x="830.87" y="162.76" width="4.25" height="44.99"/>
    <g class="cls-8">
      <path class="cls-9" d="M848.47,164.68h-4.34v37.49a7.83,7.83,0,0,0,2.1,5.7q2.1,2.18,6.24,2.17,10.77,0,17.73-.39l-.13-3.29H853.19c-3.16,0-4.73-1.59-4.73-4.8Z"/>
      <path class="cls-9" d="M893.58,164.08c-5,0-10.27.2-15.69.6V210q8.28.59,15.69.6c6.41,0,10.87-1.73,13.44-5.16s3.84-9.47,3.84-18.09-1.27-14.66-3.84-18.09-7-5.16-13.44-5.16m0,42.69q-4.85,0-11.42-.13V168q10.23-.2,11.42-.2,7.15,0,9.94,4.31t2.81,15.2q0,10.91-2.81,15.17t-9.94,4.28"/>
      <path class="cls-9" d="M929,164.61a8.17,8.17,0,0,0-5.8,2A7,7,0,0,0,921,172.1v30.47a7,7,0,0,0,2.21,5.45,8.15,8.15,0,0,0,5.8,2q13.22,0,19.38-.39l-.26-3.29h-18.4q-4.39,0-4.39-4.73v-14h20.23v-3.49H925.3v-11.1c0-3.2,1.47-4.79,4.39-4.79h18.4l.26-3.28q-6.18-.4-19.38-.4"/>
      <path class="cls-9" d="M973.1,164.15q-9.71,0-15.16.53V210h4.27V190.42q5.25.14,11.22.13c3.11,0,5.28,1.72,6.5,5.2L984.28,210h4.59l-4.59-14.38q-1.51-5.32-5.39-6.43v-.27c3-.43,5.12-1.56,6.41-3.38s1.93-4.63,1.93-8.44q0-7.48-3.15-10.21t-11-2.72m-10.89,22.65V168q5.25-.14,10.89-.14c3.68,0,6.23.67,7.65,2s2.14,3.81,2.14,7.48-.72,6.12-2.14,7.45-4,2-7.65,2.07Z"/>
      <path class="cls-9" d="M1009,163.95a35.54,35.54,0,0,0-5.13.3,11.71,11.71,0,0,0-4.33,1.55,6.28,6.28,0,0,0-2.76,3.58,20.84,20.84,0,0,0-.79,6.33c0,3.64.68,6.42,2,8.37s3.63,3.25,6.83,3.91l9.66,2c2.32.44,4,1.25,4.89,2.44s1.42,3.21,1.42,6q0,5.19-2.11,6.77c-1.39,1.06-4.09,1.6-8.07,1.64q-5.53,0-13.66-.39l-.27,3.22a90,90,0,0,0,13.78,1,39.5,39.5,0,0,0,6.58-.43,12,12,0,0,0,4.46-1.68,6.8,6.8,0,0,0,2.83-3.67,19.79,19.79,0,0,0,.86-6.39c0-3.7-.69-6.55-2.07-8.5s-3.75-3.25-7.12-3.91l-9.45-2a7.73,7.73,0,0,1-4.83-2.46c-.93-1.19-1.41-3.16-1.41-5.88a16.34,16.34,0,0,1,.49-4.53,3.9,3.9,0,0,1,2-2.42,8.35,8.35,0,0,1,3-1,46.29,46.29,0,0,1,4.73-.16c3.2,0,7.38.12,12.54.39l.34-3.14a73.62,73.62,0,0,0-13.07-1.05H1009"/>
      <path class="cls-9" d="M1049,164.15q-9.05,0-14,.53V210q5.65.53,16,.53c5.3,0,9-.84,11.14-2.5s3.18-4.77,3.18-9.32q0-5.65-2.06-8.64c-1.38-2-3.7-3.15-7-3.45v-.26c2.67-.26,4.62-1.23,5.84-2.92s1.84-4.17,1.84-7.46c0-4.59-1.09-7.72-3.25-9.34s-6.05-2.47-11.66-2.47m-9.78,20.68V167.89q2.42-.06,9.66-.06c4.11,0,6.95.59,8.51,1.74s2.33,3.45,2.33,6.86-.7,5.5-2.09,6.65-4,1.73-7.69,1.76Zm11.23,22q-5.71,0-11.23-.13V188.19h10.71c4.17.09,7,.8,8.6,2.17s2.37,3.94,2.37,7.75c0,3.45-.75,5.78-2.23,7s-4.23,1.77-8.21,1.77"/>
      <path class="cls-9" d="M1083.11,164.61a8.22,8.22,0,0,0-5.82,2,7,7,0,0,0-2.2,5.45v30.47a7,7,0,0,0,2.2,5.45,8.2,8.2,0,0,0,5.82,2c8.78,0,15.25-.13,19.36-.39l-.24-3.29h-18.39q-4.41,0-4.4-4.73v-14h20.22v-3.49h-20.22v-11.1c0-3.2,1.47-4.79,4.4-4.79h18.39l.24-3.28c-4.11-.27-10.57-.4-19.36-.4"/>
      <path class="cls-9" d="M1127.76,164.08q-7.56,0-15.69.6V210q8.27.59,15.69.6c6.4,0,10.87-1.73,13.44-5.16S1145,196,1145,187.33s-1.28-14.66-3.84-18.09-7-5.16-13.44-5.16m0,42.69c-3.24,0-7,0-11.42-.13V168q10.23-.2,11.42-.2c4.78,0,8.09,1.43,10,4.31s2.79,7.93,2.79,15.2-.93,12.33-2.79,15.17-5.17,4.28-10,4.28"/>
      <path class="cls-9" d="M1170.72,164.15q-9.73,0-15.17.53V210h4.26V190.42c3.5.09,7.25.13,11.23.13,3.11,0,5.28,1.72,6.51,5.2l4.33,14.24h4.6l-4.6-14.38c-1-3.55-2.8-5.69-5.38-6.43v-.27c3-.43,5.11-1.56,6.4-3.38s1.94-4.63,1.94-8.44q0-7.48-3.16-10.21t-11-2.72m-10.91,22.65V168q5.24-.14,10.91-.14c3.67,0,6.23.67,7.64,2s2.14,3.81,2.14,7.48-.71,6.12-2.14,7.45-4,2-7.64,2.07Z"/>
    </g>
    <rect class="cls-9" x="1196.32" y="162.76" width="4.23" height="44.99"/>
    <g class="cls-8">
      <path class="cls-9" d="M1222.33,164.68H1218v36.64q0,5.52-5.65,5.52h-3.48l-.46,3a23.86,23.86,0,0,0,5.39.65q8.53,0,8.53-9.33Z"/>
      <path class="cls-9" d="M1242.09,164.61a8.14,8.14,0,0,0-5.8,2.07,7.36,7.36,0,0,0-2.2,5.63V210h4.33v-21.8h19.7V184.7h-19.7V173.08c0-3.2,1.57-4.79,4.73-4.79h17.54l.26-3.28q-6-.4-18.86-.4"/>
    </g>
  </g>
</svg>
