<svg xmlns="http://www.w3.org/2000/svg" viewBox="0 0 164 57.19"><defs><style>.cls-1{fill:#51534a}.cls-2{fill:#002e6d}.cls-3{fill:#ff8300}</style></defs><title>logo</title><g id="Layer_2" data-name="Layer 2"><g id="Layer_1-2" data-name="Layer 1"><path class="cls-1" d="M18.55 54.19H19l1 2.52 1-2.52h.43l-1.21 3h-.42zm6.79.18a1.48 1.48 0 0 1 .57.54 1.56 1.56 0 0 1 0 1.53 1.51 1.51 0 0 1-.57.55 1.52 1.52 0 0 1-.79.2 1.55 1.55 0 0 1-.79-.2 1.48 1.48 0 0 1-.56-.55 1.49 1.49 0 0 1 .56-2.07 1.66 1.66 0 0 1 1.58 0zm-1.34.31a1.13 1.13 0 0 0-.42.42 1 1 0 0 0-.16.57 1.17 1.17 0 0 0 .58 1 1.18 1.18 0 0 0 1.15 0 1.1 1.1 0 0 0 .41-.42 1.06 1.06 0 0 0 .16-.58 1 1 0 0 0-.16-.57 1.18 1.18 0 0 0-.41-.42 1.18 1.18 0 0 0-1.15 0zm4.19-.49h.41v2.6h1.3v.37h-1.71zm6.2 2.97h-.49l-1-1.37-.55.6v.77h-.45v-3h.41v1.67l1.52-1.67h.49l-1.18 1.28zm2-2.97h2.06v.37H36.8v.92h1.48v.37H36.8v.94h1.7v.37h-2.11zm6.18 2.97l-.57-.93h-.92v.92h-.41v-3h1.16a1.36 1.36 0 0 1 .88.26.94.94 0 0 1 .3.74.93.93 0 0 1-.65 1l.7 1zm-.76-1.29a.92.92 0 0 0 .59-.17.62.62 0 0 0 .2-.49.6.6 0 0 0-.2-.49 1 1 0 0 0-.59-.16h-.75v1.31zm6-1.68h2.06v.37h-1.66v.92h1.49v.37h-1.49v.94h1.71v.37h-2.11zm6.37 0h.4v3h-.41l-1.7-2.3v2.3h-.4v-3h.41l1.7 2.31zM59 55.71h.36v1.09a1.82 1.82 0 0 1-1.13.39 1.51 1.51 0 0 1-.78-.2 1.41 1.41 0 0 1-.56-.55 1.5 1.5 0 0 1 0-1.53 1.48 1.48 0 0 1 .57-.54 1.53 1.53 0 0 1 .8-.2 1.59 1.59 0 0 1 .6.11 1.44 1.44 0 0 1 .51.3l-.23.29a1.33 1.33 0 0 0-.41-.25 1.27 1.27 0 0 0-.47-.09 1.18 1.18 0 0 0-.59.15 1.06 1.06 0 0 0-.42.42 1 1 0 0 0-.16.57 1.06 1.06 0 0 0 .16.58 1.13 1.13 0 0 0 .42.42 1.11 1.11 0 0 0 .59.16 1.31 1.31 0 0 0 .38-.06 1.22 1.22 0 0 0 .36-.18zm2.6-1.52h.4v3h-.4zm4.86 0h.4v3h-.41l-1.7-2.3v2.3h-.41v-3h.42l1.7 2.31zm2.74 0h2.07v.37h-1.66v.92h1.48v.37h-1.48v.94h1.71v.37H69.2zm4.26 0h2.07v.37h-1.66v.92h1.48v.37h-1.48v.94h1.71v.37h-2.12zm6.18 2.97l-.59-.93h-.92v.92h-.41v-3h1.17a1.35 1.35 0 0 1 .87.26.94.94 0 0 1 .31.74 1.07 1.07 0 0 1-.17.61 1 1 0 0 1-.48.36l.69 1zm-.75-1.29a.89.89 0 0 0 .58-.17.59.59 0 0 0 .21-.49.58.58 0 0 0-.21-.49 1 1 0 0 0-.58-.16h-.76v1.31zm3.39-1.68h.41v3h-.41zm4.86 0h.4v3h-.41l-1.7-2.3v2.3H85v-3h.42l1.7 2.31zm4.8 1.52h.36v1.09a1.82 1.82 0 0 1-1.13.39 1.56 1.56 0 0 1-1.35-.75 1.55 1.55 0 0 1-.2-.77 1.45 1.45 0 0 1 .21-.76 1.41 1.41 0 0 1 .57-.54 1.52 1.52 0 0 1 .79-.2 1.61 1.61 0 0 1 .61.11 1.44 1.44 0 0 1 .51.3l-.23.29a1.34 1.34 0 0 0-.89-.34 1.17 1.17 0 0 0-.58.15 1.06 1.06 0 0 0-.42.42 1 1 0 0 0-.16.57 1.17 1.17 0 0 0 .58 1 1.11 1.11 0 0 0 .59.16 1.31 1.31 0 0 0 .38-.06 1.22 1.22 0 0 0 .36-.18zm6.52-1.1a1.56 1.56 0 0 0-.41-.06.71.71 0 0 0-.41.1.32.32 0 0 0-.16.27.38.38 0 0 0 .1.26.63.63 0 0 0 .23.16l.38.13a3.09 3.09 0 0 1 .48.18.78.78 0 0 1 .32.25.68.68 0 0 1 .13.44.77.77 0 0 1-.13.45 1 1 0 0 1-.39.3 1.48 1.48 0 0 1-.57.1 1.59 1.59 0 0 1-.64-.13 1.61 1.61 0 0 1-.53-.34l.18-.35a1.39 1.39 0 0 0 .48.32 1.17 1.17 0 0 0 .51.11.88.88 0 0 0 .47-.11.36.36 0 0 0 .17-.32.37.37 0 0 0-.09-.26.6.6 0 0 0-.24-.16l-.34-.13a3.09 3.09 0 0 1-.48-.18.78.78 0 0 1-.32-.25.65.65 0 0 1-.2-.39.68.68 0 0 1 .13-.42.83.83 0 0 1 .37-.29 1.55 1.55 0 0 1 .55-.09 1.59 1.59 0 0 1 .53.08 1.55 1.55 0 0 1 .45.21l-.17.36a1.69 1.69 0 0 0-.4-.24zm2.42-.42h2.32v.37h-1v2.6h-.41v-2.6h-1zm6.19 2.97l-.59-.93h-.92v.92h-.41v-3h1.17a1.33 1.33 0 0 1 .87.26.91.91 0 0 1 .31.74 1.07 1.07 0 0 1-.17.61 1 1 0 0 1-.48.36l.69 1zm-.75-1.29a.89.89 0 0 0 .58-.17.59.59 0 0 0 .21-.49.58.58 0 0 0-.21-.49 1 1 0 0 0-.58-.16h-.76v1.31zm3.96.72a.82.82 0 0 0 .63.23.81.81 0 0 0 .62-.23.87.87 0 0 0 .22-.64v-1.76h.41V56a1.22 1.22 0 0 1-.33.91 1.25 1.25 0 0 1-.92.33 1.29 1.29 0 0 1-.93-.33 1.22 1.22 0 0 1-.33-.91v-1.81h.41V56a.87.87 0 0 0 .22.59zm5.91-1.96a1.06 1.06 0 0 0-.46-.1 1.17 1.17 0 0 0-.58.15 1.15 1.15 0 0 0-.41.41 1.08 1.08 0 0 0-.16.58 1 1 0 0 0 .16.57 1.1 1.1 0 0 0 .41.42 1.17 1.17 0 0 0 .58.15 1.22 1.22 0 0 0 .46-.09 1.53 1.53 0 0 0 .4-.26l.24.26a1.54 1.54 0 0 1-.52.35 1.61 1.61 0 0 1-.6.12 1.51 1.51 0 0 1-.78-.2 1.51 1.51 0 0 1-.55-2.08 1.39 1.39 0 0 1 .56-.54 1.52 1.52 0 0 1 .79-.2 1.59 1.59 0 0 1 .6.11 1.56 1.56 0 0 1 .5.33l-.24.29a1.34 1.34 0 0 0-.4-.27zm2.32-.44h2.32v.37h-1v2.6h-.41v-2.6h-.95zm4.85 2.4a.81.81 0 0 0 .62.23.79.79 0 0 0 .62-.23.88.88 0 0 0 .23-.64v-1.76h.41V56a1.23 1.23 0 0 1-.34.91 1.45 1.45 0 0 1-1.84 0 1.19 1.19 0 0 1-.34-.91v-1.81h.41V56a.84.84 0 0 0 .23.59zm6.07.57l-.59-.93h-.92v.92h-.41v-3h1.16a1.31 1.31 0 0 1 .87.26.91.91 0 0 1 .31.74 1 1 0 0 1-.65 1l.69 1zm-.76-1.29a.92.92 0 0 0 .59-.17.62.62 0 0 0 .2-.49.6.6 0 0 0-.2-.49 1 1 0 0 0-.59-.16h-.75v1.31zm3.39-1.68h2.07v.37h-1.66v.92H134v.37h-1.48v.94h1.71v.37h-2.12zm5.57.42a1.56 1.56 0 0 0-.41-.06.71.71 0 0 0-.41.1.3.3 0 0 0-.16.27.34.34 0 0 0 .1.26.6.6 0 0 0 .22.16l.38.13a3.26 3.26 0 0 1 .49.18.78.78 0 0 1 .32.25.68.68 0 0 1 .13.44.71.71 0 0 1-.14.45.88.88 0 0 1-.38.3 1.48 1.48 0 0 1-.57.1 1.56 1.56 0 0 1-.64-.13 1.66 1.66 0 0 1-.54-.34l.19-.35a1.46 1.46 0 0 0 .47.32 1.25 1.25 0 0 0 .52.11.91.91 0 0 0 .47-.11.39.39 0 0 0 .17-.32.37.37 0 0 0-.09-.26.6.6 0 0 0-.24-.16l-.38-.13a3.73 3.73 0 0 1-.49-.18.75.75 0 0 1-.31-.25.65.65 0 0 1-.13-.43.68.68 0 0 1 .13-.42.83.83 0 0 1 .37-.29 1.55 1.55 0 0 1 .55-.09 1.53 1.53 0 0 1 .52.08 1.5 1.5 0 0 1 .46.21l-.17.36a1.86 1.86 0 0 0-.43-.2zm2.6-11.74h-14.49L111.47 0h14.5l14.26 42.87z"/><path class="cls-2" d="M108.73 25.6l-4.83-14.5h55.19l4.91 7.25-4.91 7.25h-50.36z"/><path class="cls-3" d="M125.85 42.87h14.5L154.61 0h-14.49l-14.27 42.87z"/><path class="cls-2" d="M86.11 19.48l-5.86-2.36c-3.45-1.37-6.18-2.45-6.18-5.35 0-2.75 2.3-4.46 6-4.46a13.85 13.85 0 0 1 8.44 3l3.83-4.79A18.52 18.52 0 0 0 80.09.75c-7.37 0-13 4.25-13.86 10.11A21.47 21.47 0 0 0 56 2 17.68 17.68 0 0 0 49.49.76 19.37 19.37 0 0 0 40.75 3a18.73 18.73 0 0 0-4.89 3.49L38.08.75h-8.54L19 27.23 8.54.75H0l16.09 41.37H22l8.65-22.24a23.35 23.35 0 0 0 2.63 10.32 21 21 0 0 0 11.44 10.74 18.23 18.23 0 0 0 15.12-1 23.69 23.69 0 0 0 4.85-3.19A21.85 21.85 0 0 0 79 42.08c8.72 0 14.81-5 14.81-12 .02-5.08-2.43-8.46-7.7-10.6zm-48 2a14.13 14.13 0 0 1 .81-6.67 11.63 11.63 0 0 1 5.48-5.63 11 11 0 0 1 7.2-1 11.15 11.15 0 0 1 6.23 3.55l.66.73-20.34 10.16zm41.16 14c-2.19 0-6.35-1.49-10.52-3.9a19.56 19.56 0 0 0 1.88-6h-7.59a12.94 12.94 0 0 1-6.6 7.63 11.39 11.39 0 0 1-8.25 1 12 12 0 0 1-6.69-4.92l-.5-.71 25.65-12.86c1.35 4.1 5 6.2 7.34 7.16l5.87 2.49c3.44 1.41 5.92 2.43 5.92 5.41 0 1.42-.64 4.74-6.55 4.74z"/></g></g></svg>